<?xml version="1.0" encoding="UTF-8"?>
<!-- Generator: visioncortex VTracer 0.6.12 -->
<svg version="1.1" xmlns="http://www.w3.org/2000/svg" width="696" height="696" viewBox="0 0 696 696">
<path d="M0,0 L63,0 L74,1 L75,2 L76,33 L65,31 L4,31 L0,32 L-1,101 L-2,373 L-3,406 L-5,407 L-32,407 L-34,405 L-35,348 L-37,342 L-40,341 L-68,340 L-70,337 L-71,314 L-72,309 L-79,308 L-146,308 L-147,328 L-147,364 L-146,375 L-149,378 L-157,376 L-176,375 L-178,370 L-178,315 L-177,312 L-178,309 L-177,308 L-149,307 L-147,308 L-146,293 L-146,276 L-145,275 L-86,275 L-71,276 L-70,279 L-70,307 L-64,308 L-42,308 L-35,305 L-34,294 L-34,197 L-33,31 L-3,31 L-2,24 L-1,1 Z " fill="#ffffff" transform="translate(225,10)"/>
<path d="M0,0 L29,0 L30,131 L35,136 L133,137 L135,138 L136,142 L137,164 L142,170 L149,171 L238,172 L240,173 L241,184 L241,198 L243,203 L246,205 L310,207 L311,211 L311,231 L312,239 L319,240 L341,241 L342,257 L343,346 L343,447 L340,449 L310,450 L309,444 L310,440 L310,390 L311,252 L310,241 L308,241 L308,239 L305,240 L301,238 L248,238 L245,241 L244,244 L243,288 L242,304 L241,306 L237,307 L214,307 L212,301 L212,204 L208,203 L191,202 L141,202 L138,206 L137,209 L136,254 L135,274 L134,275 L107,275 L105,269 L106,175 L104,167 L37,166 L32,167 L30,173 L29,265 L28,273 L27,274 L1,274 L0,273 L0,8 L-1,1 Z M239,300 L238,302 L240,302 Z " fill="#ffffff" transform="translate(303,42)"/>
<path d="M0,0 L3,1 L35,2 L36,27 L36,36 L35,37 L2,37 L-1,32 L-1,19 L-2,2 Z " fill="#ffffff" transform="translate(81,386)"/>
<path d="M0,0 L32,1 L33,2 L33,55 L34,69 L33,70 L27,70 L25,69 L3,69 L1,67 L1,8 Z " fill="#ffffff" transform="translate(118,423)"/>
<path d="M0,0 L5,1 L32,2 L32,55 L33,71 L31,74 L26,73 L2,72 L0,67 L0,13 L-1,1 Z " fill="#ffffff" transform="translate(155,493)"/>
<path d="M0,0 L5,0 L4,9 L4,58 L2,63 L2,104 L0,107 L-15,108 L-27,109 L-29,108 L-29,2 L-1,1 Z " fill="#ffffff" transform="translate(608,492)"/>
<path d="M0,0 L7,2 L31,2 L33,3 L33,62 L30,65 L4,64 L0,62 L-1,1 Z " fill="#ffffff" transform="translate(190,566)"/>
<path d="M0,0 L4,0 L5,3 L4,5 L3,58 L1,59 L-24,60 L-27,61 L-31,58 L-30,3 L-25,2 L-5,2 Z " fill="#ffffff" transform="translate(575,600)"/>
<path d="M0,0 L6,2 L32,3 L33,27 L37,32 L107,31 L314,32 L317,30 L321,30 L321,32 L323,33 L322,58 L319,61 L43,61 L8,60 L1,58 L0,56 L-1,1 Z " fill="#ffffff" transform="translate(224,629)"/>
</svg>
